# xmcd CD database file generated by Grip 3.0.3
# 
# Track frame offsets:
#       150
#       25862
#       43323
#       59485
#       73347
#       86049
#       129081
#       141708
#       155600
#       173218
#       185243
#       198358
# 
# Disc length: 2823 seconds
# 
# Revision: 1
# Processed by: cddbd v1.4PL0 Copyright (c) Steve Scherf et al.
# Submitted via: Grip 3.0.3
# 
DISCID=bc0b050c
DTITLE=Various Artist - The Blues Live On - Disc 1
DYEAR=1900
DGENRE=Blues
TTITLE0=Ottis Redding - I've Been Loving You Too Long
TTITLE1=Little Johnny Taylor - Part-Time Love
TTITLE2=Lonnie Johnson - Don't Ever Love
TTITLE3=Floyd Dixon - Hard Livin' Alone
TTITLE4=Joe Turner - Still in the Dark
TTITLE5=Ruth Brown - St. Louis Blues
TTITLE6=Jimmy Witherspoon - Money's Getting Cheaper
TTITLE7=Saunders King - S.K. Blues
TTITLE8=John Lee Hooker - You're Leavin' Me Baby
TTITLE9=Helen Humes - Trouble in Mind
TTITLE10=Jimmy McCracklin - Think
TTITLE11=Johnnie Taylor - That Bone
EXTD=
EXTT0=
EXTT1=
EXTT2=
EXTT3=
EXTT4=
EXTT5=
EXTT6=
EXTT7=
EXTT8=
EXTT9=
EXTT10=
EXTT11=
PLAYORDER=
